<?xml version="1.0" encoding="UTF-8"?><!DOCTYPE svg PUBLIC "-//W3C//DTD SVG 1.1//EN" "http://www.w3.org/Graphics/SVG/1.1/DTD/svg11.dtd">
<svg xmlns="http://www.w3.org/2000/svg" xmlns:xlink="http://www.w3.org/1999/xlink" version="1.1" width="24" height="24" viewBox="0 0 24 24">
    <path
       d="M 9 2 L 9 4 L 4 4 L 4 20 L 9 20 L 9 22 L 15 22 L 15 20 L 20 20 L 20 4 L 15 4 L 15 2 L 9 2 z M 11 4 L 13 4 L 13 6 L 11 6 L 11 4 z M 6 6 L 9 6 L 9 8 L 15 8 L 15 6 L 18 6 L 18 18 L 15 18 L 15 16 L 9 16 L 9 18 L 6 18 L 6 6 z M 11 18 L 13 18 L 13 20 L 11 20 L 11 18 z "
/>
</svg>
