<?xml version="1.0" encoding="UTF-8" standalone="no"?>
<!-- Created with Inkscape (http://www.inkscape.org/) -->

<svg
   xmlns:dc="http://purl.org/dc/elements/1.1/"
   xmlns:cc="http://creativecommons.org/ns#"
   xmlns:rdf="http://www.w3.org/1999/02/22-rdf-syntax-ns#"
   xmlns:svg="http://www.w3.org/2000/svg"
   xmlns="http://www.w3.org/2000/svg"
   xmlns:sodipodi="http://sodipodi.sourceforge.net/DTD/sodipodi-0.dtd"
   xmlns:inkscape="http://www.inkscape.org/namespaces/inkscape"
   width="24"
   height="24"
   viewBox="0 0 6.3499999 6.3500002"
   version="1.1"
   id="svg821"
   inkscape:version="0.92.4 (f8dce91, 2019-08-02)"
   sodipodi:docname="frame-horizontal-lock.svg">
  <defs
     id="defs815" />
  <sodipodi:namedview
     id="base"
     pagecolor="#ffffff"
     bordercolor="#666666"
     borderopacity="1.0"
     inkscape:pageopacity="0.0"
     inkscape:pageshadow="2"
     inkscape:zoom="22.4"
     inkscape:cx="10.091632"
     inkscape:cy="13.320594"
     inkscape:document-units="mm"
     inkscape:current-layer="layer1"
     showgrid="false"
     units="px"
     inkscape:window-width="1920"
     inkscape:window-height="950"
     inkscape:window-x="1920"
     inkscape:window-y="27"
     inkscape:window-maximized="1" />
  <metadata
     id="metadata818">
    <rdf:RDF>
      <cc:Work
         rdf:about="">
        <dc:format>image/svg+xml</dc:format>
        <dc:type
           rdf:resource="http://purl.org/dc/dcmitype/StillImage" />
        <dc:title></dc:title>
      </cc:Work>
    </rdf:RDF>
  </metadata>
  <g
     inkscape:label="Ebene 1"
     inkscape:groupmode="layer"
     id="layer1"
     transform="translate(0,-290.64998)">
    <path
       style="fill:#000000;fill-opacity:1;stroke:none;stroke-width:0.37500116;stroke-opacity:1"
       d="M 9 2 L 9 4 L 4 4 L 4 20 L 9 20 L 9 22 L 15 22 L 15 20 L 20 20 L 20 4 L 15 4 L 15 2 L 9 2 z M 11 4 L 13 4 L 13 6 L 11 6 L 11 4 z M 6 6 L 9 6 L 9 8 L 15 8 L 15 6 L 18 6 L 18 18 L 15 18 L 15 16 L 9 16 L 9 18 L 6 18 L 6 6 z M 11 18 L 13 18 L 13 20 L 11 20 L 11 18 z "
       transform="matrix(0.26458333,0,0,0.26458333,0,290.64998)"
       id="rect1377" />
  </g>
</svg>
